<?xml version="1.0" standalone="no"?>
<!DOCTYPE svg PUBLIC "-//W3C//DTD SVG 1.1//EN"
"http://www.w3.org/Graphics/SVG/1.1/DTD/svg11.dtd">

<svg width="373" height="431" view_box="0 0 373 431"
xmlns="http://www.w3.org/2000/svg"
xmlns:link="http://www.w3.org/1999/xlink">\n\n<desc>Généré par Mocodo 2.3.7 le Fri, 14 Aug 2020 05:19:25</desc>

<rect id="frame" x="0" y="0" width="373" height="431" fill="#f7f7f7" stroke="none" stroke-width="0"/>

<!-- Association CREATE -->
<line x1="312" y1="169" x2="185" y2="34" stroke="#5aae61" stroke-width="2"/>
<text x="238" y="129.27356842" fill="#762a83" font-family="Verdana" font-size="12">0,N</text>
<line x1="57" y1="169" x2="185" y2="34" stroke="#5aae61" stroke-width="2"/>
<text x="110" y="128.570062919" fill="#762a83" font-family="Verdana" font-size="12">1,1</text>
<g id="association-CREATE">
	<path d="M 203 9 a 14 14 90 0 1 14 14 V 34 h -64 V 23 a 14 14 90 0 1 14 -14" fill="#a6dba0" stroke="#a6dba0" stroke-width="0"/>
	<path d="M 217 34.0 v 11 a 14 14 90 0 1 -14 14 H 167 a 14 14 90 0 1 -14 -14 V 34.0 H 64" fill="#d9f0d3" stroke="#d9f0d3" stroke-width="0"/>
	<rect x="153" y="9" width="64" height="50" fill="none" rx="14" stroke="#5aae61" stroke-width="2"/>
	<line x1="153" y1="34" x2="217" y2="34" stroke="#5aae61" stroke-width="1"/>
	<text x="160" y="26.7" fill="#000000" font-family="Verdana" font-size="12">CREATE</text>
</g>

<!-- Association SET -->
<line x1="57" y1="169" x2="57" y2="34" stroke="#5aae61" stroke-width="2"/>
<text x="31.0" y="76" fill="#762a83" font-family="Verdana" font-size="12">1,1</text>
<line x1="185" y1="279" x2="57" y2="34" stroke="#5aae61" stroke-width="2"/>
<text x="168.158650095" y="237" fill="#762a83" font-family="Verdana" font-size="12">0,N</text>
<g id="association-SET">
	<path d="M 62 9 a 14 14 90 0 1 14 14 V 34 h -38 V 23 a 14 14 90 0 1 14 -14" fill="#a6dba0" stroke="#a6dba0" stroke-width="0"/>
	<path d="M 76 34.0 v 11 a 14 14 90 0 1 -14 14 H 52 a 14 14 90 0 1 -14 -14 V 34.0 H 38" fill="#d9f0d3" stroke="#d9f0d3" stroke-width="0"/>
	<rect x="38" y="9" width="38" height="50" fill="none" rx="14" stroke="#5aae61" stroke-width="2"/>
	<line x1="38" y1="34" x2="76" y2="34" stroke="#5aae61" stroke-width="1"/>
	<text x="45" y="26.7" fill="#000000" font-family="Verdana" font-size="12">SET</text>
</g>

<!-- Association PLAY -->
<line x1="312" y1="169" x2="312" y2="380" stroke="#5aae61" stroke-width="2"/>
<text x="317.0" y="262" fill="#762a83" font-family="Verdana" font-size="12">0,N</text>
<line x1="185" y1="380" x2="312" y2="380" stroke="#5aae61" stroke-width="2"/>
<text x="214" y="397.0" fill="#762a83" font-family="Verdana" font-size="12">0,N</text>
<line x1="185" y1="279" x2="312" y2="380" stroke="#5aae61" stroke-width="2"/>
<text x="214" y="296.024617184" fill="#762a83" font-family="Verdana" font-size="12">1,1</text>
<g id="association-PLAY">
	<path d="M 350 355 a 14 14 90 0 1 14 14 V 380 h -104 V 369 a 14 14 90 0 1 14 -14" fill="#a6dba0" stroke="#a6dba0" stroke-width="0"/>
	<path d="M 364 380.0 v 11 a 14 14 90 0 1 -14 14 H 274 a 14 14 90 0 1 -14 -14 V 380.0 H 104" fill="#d9f0d3" stroke="#d9f0d3" stroke-width="0"/>
	<rect x="260" y="355" width="104" height="50" fill="none" rx="14" stroke="#5aae61" stroke-width="2"/>
	<line x1="260" y1="380" x2="364" y2="380" stroke="#5aae61" stroke-width="1"/>
	<text x="296" y="372.7" fill="#000000" font-family="Verdana" font-size="12">PLAY</text>
	<text x="267" y="397.8" fill="#000000" font-family="Verdana" font-size="12">inGame_name</text>
</g>

<!-- Association HAS -->
<line x1="57" y1="169" x2="57" y2="380" stroke="#5aae61" stroke-width="2"/>
<text x="62.0" y="271" fill="#762a83" font-family="Verdana" font-size="12">1,1</text>
<line x1="185" y1="380" x2="57" y2="380" stroke="#5aae61" stroke-width="2"/>
<text x="134" y="397.0" fill="#762a83" font-family="Verdana" font-size="12">0,N</text>
<g id="association-HAS">
	<path d="M 63 355 a 14 14 90 0 1 14 14 V 380 h -40 V 369 a 14 14 90 0 1 14 -14" fill="#a6dba0" stroke="#a6dba0" stroke-width="0"/>
	<path d="M 77 380.0 v 11 a 14 14 90 0 1 -14 14 H 51 a 14 14 90 0 1 -14 -14 V 380.0 H 40" fill="#d9f0d3" stroke="#d9f0d3" stroke-width="0"/>
	<rect x="37" y="355" width="40" height="50" fill="none" rx="14" stroke="#5aae61" stroke-width="2"/>
	<line x1="37" y1="380" x2="77" y2="380" stroke="#5aae61" stroke-width="1"/>
	<text x="44" y="372.7" fill="#000000" font-family="Verdana" font-size="12">HAS</text>
</g>

<!-- Association PARTICIPATE -->
<line x1="312" y1="169" x2="185" y2="169" stroke="#5aae61" stroke-width="2"/>
<text x="238" y="186.0" fill="#762a83" font-family="Verdana" font-size="12">0,N</text>
<line x1="57" y1="169" x2="185" y2="169" stroke="#5aae61" stroke-width="2"/>
<text x="110" y="186.0" fill="#762a83" font-family="Verdana" font-size="12">1,N</text>
<g id="association-PARTICIPATE">
	<path d="M 219 144 a 14 14 90 0 1 14 14 V 169 h -96 V 158 a 14 14 90 0 1 14 -14" fill="#a6dba0" stroke="#a6dba0" stroke-width="0"/>
	<path d="M 233 169.0 v 11 a 14 14 90 0 1 -14 14 H 151 a 14 14 90 0 1 -14 -14 V 169.0 H 96" fill="#d9f0d3" stroke="#d9f0d3" stroke-width="0"/>
	<rect x="137" y="144" width="96" height="50" fill="none" rx="14" stroke="#5aae61" stroke-width="2"/>
	<line x1="137" y1="169" x2="233" y2="169" stroke="#5aae61" stroke-width="1"/>
	<text x="144" y="161.7" fill="#000000" font-family="Verdana" font-size="12">PARTICIPATE</text>
	<text x="144" y="186.8" fill="#000000" font-family="Verdana" font-size="12">message</text>
</g>

<!-- Entity GAME -->
<g id="entity-GAME">
	<g id="frame-GAME">
		<rect x="161" y="338" width="48" height="25" fill="#c2a5cf" stroke="#c2a5cf" stroke-width="0"/>
		<rect x="161" y="363.0" width="48" height="59" fill="#e7d4e8" stroke="#e7d4e8" stroke-width="0"/>
		<rect x="161" y="338" width="48" height="84" fill="none" stroke="#9970ab" stroke-width="2"/>
		<line x1="161" y1="363" x2="209" y2="363" stroke="#9970ab" stroke-width="1"/>
	</g>
	<text x="167" y="355.7" fill="#000000" font-family="Verdana" font-size="12">GAME</text>
	<text x="166" y="380.8" fill="#000000" font-family="Verdana" font-size="12">name</text>
	<line x1="166" y1="383" x2="201" y2="383" stroke="#000000" stroke-width="1"/>
	<text x="166" y="397.8" fill="#000000" font-family="Verdana" font-size="12">order</text>
	<text x="166" y="414.8" fill="#000000" font-family="Verdana" font-size="12">image</text>
</g>

<!-- Entity LEVEL -->
<g id="entity-LEVEL">
	<g id="frame-LEVEL">
		<rect x="161" y="245" width="48" height="25" fill="#c2a5cf" stroke="#c2a5cf" stroke-width="0"/>
		<rect x="161" y="270.0" width="48" height="43" fill="#e7d4e8" stroke="#e7d4e8" stroke-width="0"/>
		<rect x="161" y="245" width="48" height="68" fill="none" stroke="#9970ab" stroke-width="2"/>
		<line x1="161" y1="270" x2="209" y2="270" stroke="#9970ab" stroke-width="1"/>
	</g>
	<text x="166" y="262.7" fill="#000000" font-family="Verdana" font-size="12">LEVEL</text>
	<text x="166" y="287.8" fill="#000000" font-family="Verdana" font-size="12">label</text>
	<line x1="166" y1="290" x2="195" y2="290" stroke="#000000" stroke-width="1"/>
	<text x="166" y="304.8" fill="#000000" font-family="Verdana" font-size="12">icon</text>
</g>

<!-- Entity EVENT -->
<g id="entity-EVENT">
	<g id="frame-EVENT">
		<rect x="9" y="84" width="96" height="25" fill="#c2a5cf" stroke="#c2a5cf" stroke-width="0"/>
		<rect x="9" y="109.0" width="96" height="145" fill="#e7d4e8" stroke="#e7d4e8" stroke-width="0"/>
		<rect x="9" y="84" width="96" height="170" fill="none" stroke="#9970ab" stroke-width="2"/>
		<line x1="9" y1="109" x2="105" y2="109" stroke="#9970ab" stroke-width="1"/>
	</g>
	<text x="36" y="101.7" fill="#000000" font-family="Verdana" font-size="12">EVENT</text>
	<text x="14" y="126.7" fill="#000000" font-family="Verdana" font-size="12">timestamp</text>
	<line x1="14" y1="129" x2="79" y2="129" stroke="#000000" stroke-width="1"/>
	<text x="14" y="143.7" fill="#000000" font-family="Verdana" font-size="12">duration</text>
	<text x="14" y="160.7" fill="#000000" font-family="Verdana" font-size="12">player_count</text>
	<text x="14" y="177.8" fill="#000000" font-family="Verdana" font-size="12">description</text>
	<text x="14" y="194.8" fill="#000000" font-family="Verdana" font-size="12">status</text>
	<text x="14" y="211.8" fill="#000000" font-family="Verdana" font-size="12">language</text>
	<text x="14" y="228.8" fill="#000000" font-family="Verdana" font-size="12">image</text>
	<text x="14" y="245.8" fill="#000000" font-family="Verdana" font-size="12">vocal_channel</text>
</g>

<!-- Entity USER -->
<g id="entity-USER">
	<g id="frame-USER">
		<rect x="265" y="93" width="94" height="25" fill="#c2a5cf" stroke="#c2a5cf" stroke-width="0"/>
		<rect x="265" y="118.0" width="94" height="127" fill="#e7d4e8" stroke="#e7d4e8" stroke-width="0"/>
		<rect x="265" y="93" width="94" height="152" fill="none" stroke="#9970ab" stroke-width="2"/>
		<line x1="265" y1="118" x2="359" y2="118" stroke="#9970ab" stroke-width="1"/>
	</g>
	<text x="295" y="110.7" fill="#000000" font-family="Verdana" font-size="12">USER</text>
	<text x="270" y="135.7" fill="#000000" font-family="Verdana" font-size="12">email</text>
	<line x1="270" y1="138" x2="304" y2="138" stroke="#000000" stroke-width="1"/>
	<text x="270" y="152.7" fill="#000000" font-family="Verdana" font-size="12">password</text>
	<text x="270" y="169.8" fill="#000000" font-family="Verdana" font-size="12">nickname</text>
	<text x="270" y="186.8" fill="#000000" font-family="Verdana" font-size="12">date_of_birth</text>
	<text x="270" y="203.8" fill="#000000" font-family="Verdana" font-size="12">description</text>
	<text x="270" y="220.8" fill="#000000" font-family="Verdana" font-size="12">avatar</text>
	<text x="270" y="237.8" fill="#000000" font-family="Verdana" font-size="12">banner</text>
</g>
</svg>