<?xml version="1.0" standalone="no"?>
<!DOCTYPE svg PUBLIC "-//W3C//DTD SVG 1.1//EN"
"http://www.w3.org/Graphics/SVG/1.1/DTD/svg11.dtd">

<svg width="555" height="433" view_box="0 0 555 433"
xmlns="http://www.w3.org/2000/svg"
xmlns:link="http://www.w3.org/1999/xlink">\n\n<desc>Généré par Mocodo 2.3.7 le Thu, 13 Aug 2020 03:17:28</desc>

<rect id="frame" x="0" y="0" width="555" height="433" fill="#f7f7f7" stroke="none" stroke-width="0"/>

<!-- Association CONTIENT -->
<line x1="413" y1="43" x2="507" y2="43" stroke="#de77ae" stroke-width="2"/>
<text x="440" y="60.0" fill="#4d9221" font-family="Verdana" font-size="12">0,N</text>
<line x1="507" y1="178" x2="507" y2="43" stroke="#de77ae" stroke-width="2"/>
<text x="512.0" y="128" fill="#4d9221" font-family="Verdana" font-size="12">1,1</text>
<g id="association-CONTIENT">
	<path d="M 532 18 a 14 14 90 0 1 14 14 V 43 h -78 V 32 a 14 14 90 0 1 14 -14" fill="#f1b6da" stroke="#f1b6da" stroke-width="0"/>
	<path d="M 546 43.0 v 11 a 14 14 90 0 1 -14 14 H 482 a 14 14 90 0 1 -14 -14 V 43.0 H 78" fill="#fde0ef" stroke="#fde0ef" stroke-width="0"/>
	<rect x="468" y="18" width="78" height="50" fill="none" rx="14" stroke="#de77ae" stroke-width="2"/>
	<line x1="468" y1="43" x2="546" y2="43" stroke="#de77ae" stroke-width="1"/>
	<text x="475" y="35.7" fill="#000000" font-family="Verdana" font-size="12">CONTIENT</text>
</g>

<!-- Association PARTICIPER -->
<line x1="291" y1="178" x2="291" y2="356" stroke="#de77ae" stroke-width="2"/>
<text x="296.0" y="280" fill="#4d9221" font-family="Verdana" font-size="12">0,N</text>
<line x1="153" y1="356" x2="291" y2="356" stroke="#de77ae" stroke-width="2"/>
<text x="220" y="373.0" fill="#4d9221" font-family="Verdana" font-size="12">1,N</text>
<g id="association-PARTICIPER">
	<path d="M 321 331 a 14 14 90 0 1 14 14 V 356 h -88 V 345 a 14 14 90 0 1 14 -14" fill="#f1b6da" stroke="#f1b6da" stroke-width="0"/>
	<path d="M 335 356.0 v 11 a 14 14 90 0 1 -14 14 H 261 a 14 14 90 0 1 -14 -14 V 356.0 H 88" fill="#fde0ef" stroke="#fde0ef" stroke-width="0"/>
	<rect x="247" y="331" width="88" height="50" fill="none" rx="14" stroke="#de77ae" stroke-width="2"/>
	<line x1="247" y1="356" x2="335" y2="356" stroke="#de77ae" stroke-width="1"/>
	<text x="254" y="348.7" fill="#000000" font-family="Verdana" font-size="12">PARTICIPER</text>
</g>

<!-- Association UTILISE -->
<line x1="291" y1="178" x2="291" y2="43" stroke="#de77ae" stroke-width="2"/>
<text x="296.0" y="85" fill="#4d9221" font-family="Verdana" font-size="12">0,N</text>
<line x1="413" y1="43" x2="291" y2="43" stroke="#de77ae" stroke-width="2"/>
<text x="364" y="60.0" fill="#4d9221" font-family="Verdana" font-size="12">0,N</text>
<g id="association-UTILISE">
	<path d="M 309 18 a 14 14 90 0 1 14 14 V 43 h -64 V 32 a 14 14 90 0 1 14 -14" fill="#f1b6da" stroke="#f1b6da" stroke-width="0"/>
	<path d="M 323 43.0 v 11 a 14 14 90 0 1 -14 14 H 273 a 14 14 90 0 1 -14 -14 V 43.0 H 64" fill="#fde0ef" stroke="#fde0ef" stroke-width="0"/>
	<rect x="259" y="18" width="64" height="50" fill="none" rx="14" stroke="#de77ae" stroke-width="2"/>
	<line x1="259" y1="43" x2="323" y2="43" stroke="#de77ae" stroke-width="1"/>
	<text x="266" y="35.7" fill="#000000" font-family="Verdana" font-size="12">UTILISE</text>
</g>

<!-- Association JOUE A -->
<line x1="291" y1="178" x2="153" y2="43" stroke="#de77ae" stroke-width="2"/>
<text x="201" y="126.408447639" fill="#4d9221" font-family="Verdana" font-size="12">0,N</text>
<line x1="51" y1="43" x2="153" y2="43" stroke="#de77ae" stroke-width="2"/>
<text x="78" y="60.0" fill="#4d9221" font-family="Verdana" font-size="12">0,N</text>
<g id="association-JOUE A">
	<path d="M 169 18 a 14 14 90 0 1 14 14 V 43 h -60 V 32 a 14 14 90 0 1 14 -14" fill="#f1b6da" stroke="#f1b6da" stroke-width="0"/>
	<path d="M 183 43.0 v 11 a 14 14 90 0 1 -14 14 H 137 a 14 14 90 0 1 -14 -14 V 43.0 H 60" fill="#fde0ef" stroke="#fde0ef" stroke-width="0"/>
	<rect x="123" y="18" width="60" height="50" fill="none" rx="14" stroke="#de77ae" stroke-width="2"/>
	<line x1="123" y1="43" x2="183" y2="43" stroke="#de77ae" stroke-width="1"/>
	<text x="130" y="35.7" fill="#000000" font-family="Verdana" font-size="12">JOUE A</text>
</g>

<!-- Association CREER -->
<line x1="291" y1="178" x2="153" y2="178" stroke="#de77ae" stroke-width="2"/>
<text x="201" y="195.0" fill="#4d9221" font-family="Verdana" font-size="12">0,N</text>
<line x1="153" y1="356" x2="153" y2="178" stroke="#de77ae" stroke-width="2"/>
<text x="158.0" y="280" fill="#4d9221" font-family="Verdana" font-size="12">1,1</text>
<g id="association-CREER">
	<path d="M 167 153 a 14 14 90 0 1 14 14 V 178 h -56 V 167 a 14 14 90 0 1 14 -14" fill="#f1b6da" stroke="#f1b6da" stroke-width="0"/>
	<path d="M 181 178.0 v 11 a 14 14 90 0 1 -14 14 H 139 a 14 14 90 0 1 -14 -14 V 178.0 H 56" fill="#fde0ef" stroke="#fde0ef" stroke-width="0"/>
	<rect x="125" y="153" width="56" height="50" fill="none" rx="14" stroke="#de77ae" stroke-width="2"/>
	<line x1="125" y1="178" x2="181" y2="178" stroke="#de77ae" stroke-width="1"/>
	<text x="132" y="170.7" fill="#000000" font-family="Verdana" font-size="12">CREER</text>
</g>

<!-- Association CONSERNE -->
<line x1="153" y1="356" x2="51" y2="178" stroke="#de77ae" stroke-width="2"/>
<text x="114.582189061" y="280" fill="#4d9221" font-family="Verdana" font-size="12">1,1</text>
<line x1="51" y1="43" x2="51" y2="178" stroke="#de77ae" stroke-width="2"/>
<text x="56.0" y="94" fill="#4d9221" font-family="Verdana" font-size="12">0,N</text>
<g id="association-CONSERNE">
	<path d="M 79 153 a 14 14 90 0 1 14 14 V 178 h -84 V 167 a 14 14 90 0 1 14 -14" fill="#f1b6da" stroke="#f1b6da" stroke-width="0"/>
	<path d="M 93 178.0 v 11 a 14 14 90 0 1 -14 14 H 23 a 14 14 90 0 1 -14 -14 V 178.0 H 84" fill="#fde0ef" stroke="#fde0ef" stroke-width="0"/>
	<rect x="9" y="153" width="84" height="50" fill="none" rx="14" stroke="#de77ae" stroke-width="2"/>
	<line x1="9" y1="178" x2="93" y2="178" stroke="#de77ae" stroke-width="1"/>
	<text x="16" y="170.7" fill="#000000" font-family="Verdana" font-size="12">CONSERNE</text>
</g>

<!-- Association AVOIR -->
<line x1="291" y1="178" x2="413" y2="178" stroke="#de77ae" stroke-width="2"/>
<text x="359" y="195.0" fill="#4d9221" font-family="Verdana" font-size="12">1,1</text>
<line x1="413" y1="356" x2="413" y2="178" stroke="#de77ae" stroke-width="2"/>
<text x="418.0" y="306" fill="#4d9221" font-family="Verdana" font-size="12">0,N</text>
<g id="association-AVOIR">
	<path d="M 426 153 a 14 14 90 0 1 14 14 V 178 h -54 V 167 a 14 14 90 0 1 14 -14" fill="#f1b6da" stroke="#f1b6da" stroke-width="0"/>
	<path d="M 440 178.0 v 11 a 14 14 90 0 1 -14 14 H 400 a 14 14 90 0 1 -14 -14 V 178.0 H 54" fill="#fde0ef" stroke="#fde0ef" stroke-width="0"/>
	<rect x="386" y="153" width="54" height="50" fill="none" rx="14" stroke="#de77ae" stroke-width="2"/>
	<line x1="386" y1="178" x2="440" y2="178" stroke="#de77ae" stroke-width="1"/>
	<text x="393" y="170.7" fill="#000000" font-family="Verdana" font-size="12">AVOIR</text>
</g>

<!-- Entity UTILISATEUR -->
<g id="entity-UTILISATEUR">
	<g id="frame-UTILISATEUR">
		<rect x="228" y="93" width="126" height="25" fill="#b8e186" stroke="#b8e186" stroke-width="0"/>
		<rect x="228" y="118.0" width="126" height="145" fill="#e6f5d0" stroke="#e6f5d0" stroke-width="0"/>
		<rect x="228" y="93" width="126" height="170" fill="none" stroke="#7fbc41" stroke-width="2"/>
		<line x1="228" y1="118" x2="354" y2="118" stroke="#7fbc41" stroke-width="1"/>
	</g>
	<text x="249" y="110.7" fill="#000000" font-family="Verdana" font-size="12">UTILISATEUR</text>
	<text x="233" y="135.7" fill="#000000" font-family="Verdana" font-size="12">email</text>
	<line x1="233" y1="138" x2="267" y2="138" stroke="#000000" stroke-width="1"/>
	<text x="233" y="152.7" fill="#000000" font-family="Verdana" font-size="12">password</text>
	<text x="233" y="169.7" fill="#000000" font-family="Verdana" font-size="12">pseudo</text>
	<text x="233" y="186.8" fill="#000000" font-family="Verdana" font-size="12">date_de_naissance</text>
	<text x="233" y="203.8" fill="#000000" font-family="Verdana" font-size="12">reputation_score</text>
	<text x="233" y="220.8" fill="#000000" font-family="Verdana" font-size="12">description</text>
	<text x="233" y="237.8" fill="#000000" font-family="Verdana" font-size="12">avatar</text>
	<text x="233" y="254.8" fill="#000000" font-family="Verdana" font-size="12">baniere</text>
</g>

<!-- Entity EVENEMENT -->
<g id="entity-EVENEMENT">
	<g id="frame-EVENEMENT">
		<rect x="91" y="288" width="124" height="25" fill="#b8e186" stroke="#b8e186" stroke-width="0"/>
		<rect x="91" y="313.0" width="124" height="111" fill="#e6f5d0" stroke="#e6f5d0" stroke-width="0"/>
		<rect x="91" y="288" width="124" height="136" fill="none" stroke="#7fbc41" stroke-width="2"/>
		<line x1="91" y1="313" x2="215" y2="313" stroke="#7fbc41" stroke-width="1"/>
	</g>
	<text x="115" y="305.7" fill="#000000" font-family="Verdana" font-size="12">EVENEMENT</text>
	<text x="96" y="330.7" fill="#000000" font-family="Verdana" font-size="12">date et heure</text>
	<line x1="96" y1="333" x2="179" y2="333" stroke="#000000" stroke-width="1"/>
	<text x="96" y="347.7" fill="#000000" font-family="Verdana" font-size="12">level</text>
	<text x="96" y="364.8" fill="#000000" font-family="Verdana" font-size="12">durée_estimé</text>
	<text x="96" y="381.8" fill="#000000" font-family="Verdana" font-size="12">nombre_joueur</text>
	<text x="96" y="398.8" fill="#000000" font-family="Verdana" font-size="12">description_courte</text>
	<text x="96" y="415.8" fill="#000000" font-family="Verdana" font-size="12">status</text>
</g>

<!-- Entity JEUX -->
<g id="entity-JEUX">
	<g id="frame-JEUX">
		<rect x="29" y="9" width="44" height="25" fill="#b8e186" stroke="#b8e186" stroke-width="0"/>
		<rect x="29" y="34.0" width="44" height="43" fill="#e6f5d0" stroke="#e6f5d0" stroke-width="0"/>
		<rect x="29" y="9" width="44" height="68" fill="none" stroke="#7fbc41" stroke-width="2"/>
		<line x1="29" y1="34" x2="73" y2="34" stroke="#7fbc41" stroke-width="1"/>
	</g>
	<text x="35" y="26.7" fill="#000000" font-family="Verdana" font-size="12">JEUX</text>
	<text x="34" y="51.8" fill="#000000" font-family="Verdana" font-size="12">nom</text>
	<line x1="34" y1="54" x2="62" y2="54" stroke="#000000" stroke-width="1"/>
	<text x="34" y="68.8" fill="#000000" font-family="Verdana" font-size="12">ordre</text>
</g>

<!-- Entity REPUTATION -->
<g id="entity-REPUTATION">
	<g id="frame-REPUTATION">
		<rect x="368" y="314" width="90" height="25" fill="#b8e186" stroke="#b8e186" stroke-width="0"/>
		<rect x="368" y="339.0" width="90" height="59" fill="#e6f5d0" stroke="#e6f5d0" stroke-width="0"/>
		<rect x="368" y="314" width="90" height="84" fill="none" stroke="#7fbc41" stroke-width="2"/>
		<line x1="368" y1="339" x2="458" y2="339" stroke="#7fbc41" stroke-width="1"/>
	</g>
	<text x="373" y="331.7" fill="#000000" font-family="Verdana" font-size="12">REPUTATION</text>
	<text x="373" y="356.8" fill="#000000" font-family="Verdana" font-size="12">score</text>
	<line x1="373" y1="359" x2="406" y2="359" stroke="#000000" stroke-width="1"/>
	<text x="373" y="373.8" fill="#000000" font-family="Verdana" font-size="12">name</text>
	<text x="373" y="390.8" fill="#000000" font-family="Verdana" font-size="12">icone</text>
</g>

<!-- Entity CHAT -->
<g id="entity-CHAT">
	<g id="frame-CHAT">
		<rect x="391" y="26" width="44" height="25" fill="#b8e186" stroke="#b8e186" stroke-width="0"/>
		<rect x="391" y="51.0" width="44" height="9" fill="#e6f5d0" stroke="#e6f5d0" stroke-width="0"/>
		<rect x="391" y="26" width="44" height="34" fill="none" stroke="#7fbc41" stroke-width="2"/>
		<line x1="391" y1="51" x2="435" y2="51" stroke="#7fbc41" stroke-width="1"/>
	</g>
	<text x="396" y="43.8" fill="#000000" font-family="Verdana" font-size="12">CHAT</text>
</g>

<!-- Entity MESSAGE -->
<g id="entity-MESSAGE">
	<g id="frame-MESSAGE">
		<rect x="472" y="136" width="70" height="25" fill="#b8e186" stroke="#b8e186" stroke-width="0"/>
		<rect x="472" y="161.0" width="70" height="59" fill="#e6f5d0" stroke="#e6f5d0" stroke-width="0"/>
		<rect x="472" y="136" width="70" height="84" fill="none" stroke="#7fbc41" stroke-width="2"/>
		<line x1="472" y1="161" x2="542" y2="161" stroke="#7fbc41" stroke-width="1"/>
	</g>
	<text x="477" y="153.7" fill="#000000" font-family="Verdana" font-size="12">MESSAGE</text>
	<text x="477" y="178.8" fill="#000000" font-family="Verdana" font-size="12">date</text>
	<line x1="477" y1="181" x2="505" y2="181" stroke="#000000" stroke-width="1"/>
	<text x="477" y="195.8" fill="#000000" font-family="Verdana" font-size="12">envoyeur</text>
	<text x="477" y="212.8" fill="#000000" font-family="Verdana" font-size="12">message</text>
</g>
</svg>