<?xml version="1.0" standalone="no"?>
<!DOCTYPE svg PUBLIC "-//W3C//DTD SVG 1.1//EN"
"http://www.w3.org/Graphics/SVG/1.1/DTD/svg11.dtd">

<svg width="420" height="397" view_box="0 0 420 397"
xmlns="http://www.w3.org/2000/svg"
xmlns:link="http://www.w3.org/1999/xlink">\n\n<desc>Généré par Mocodo 2.3.7 le Fri, 14 Aug 2020 01:53:37</desc>

<rect id="frame" x="0" y="0" width="420" height="397" fill="#f7f7f7" stroke="none" stroke-width="0"/>

<!-- Association A -->
<line x1="71" y1="144" x2="71" y2="34" stroke="#de77ae" stroke-width="2"/>
<text x="45.0" y="77" fill="#4d9221" font-family="Verdana" font-size="12">1,1</text>
<line x1="209" y1="363" x2="71" y2="34" stroke="#de77ae" stroke-width="2"/>
<text x="200.228198213" y="330" fill="#4d9221" font-family="Verdana" font-size="12">0,N</text>
<g id="association-A">
	<path d="M 69 9 a 14 14 90 0 1 14 14 V 34 h -24 V 23 a 14 14 90 0 1 14 -14" fill="#f1b6da" stroke="#f1b6da" stroke-width="0"/>
	<path d="M 83 34.0 v 11 a 14 14 90 0 1 -14 14 H 73 a 14 14 90 0 1 -14 -14 V 34.0 H 24" fill="#fde0ef" stroke="#fde0ef" stroke-width="0"/>
	<rect x="59" y="9" width="24" height="50" fill="none" rx="14" stroke="#de77ae" stroke-width="2"/>
	<line x1="59" y1="34" x2="83" y2="34" stroke="#de77ae" stroke-width="1"/>
	<text x="66" y="26.7" fill="#000000" font-family="Verdana" font-size="12">A</text>
</g>

<!-- Association JOUE A -->
<line x1="348" y1="144" x2="348" y2="279" stroke="#de77ae" stroke-width="2"/>
<text x="353.0" y="246" fill="#4d9221" font-family="Verdana" font-size="12">0,N</text>
<line x1="209" y1="279" x2="348" y2="279" stroke="#de77ae" stroke-width="2"/>
<text x="236" y="296.0" fill="#4d9221" font-family="Verdana" font-size="12">0,N</text>
<line x1="209" y1="363" x2="348" y2="279" stroke="#de77ae" stroke-width="2"/>
<text x="238" y="360.819991017" fill="#4d9221" font-family="Verdana" font-size="12">1,1</text>
<g id="association-JOUE A">
	<path d="M 364 254 a 14 14 90 0 1 14 14 V 279 h -60 V 268 a 14 14 90 0 1 14 -14" fill="#f1b6da" stroke="#f1b6da" stroke-width="0"/>
	<path d="M 378 279.0 v 11 a 14 14 90 0 1 -14 14 H 332 a 14 14 90 0 1 -14 -14 V 279.0 H 60" fill="#fde0ef" stroke="#fde0ef" stroke-width="0"/>
	<rect x="318" y="254" width="60" height="50" fill="none" rx="14" stroke="#de77ae" stroke-width="2"/>
	<line x1="318" y1="279" x2="378" y2="279" stroke="#de77ae" stroke-width="1"/>
	<text x="325" y="271.7" fill="#000000" font-family="Verdana" font-size="12">JOUE A</text>
</g>

<!-- Association PARTICIPER -->
<line x1="348" y1="144" x2="209" y2="144" stroke="#de77ae" stroke-width="2"/>
<text x="258" y="161.0" fill="#4d9221" font-family="Verdana" font-size="12">0,N</text>
<line x1="71" y1="144" x2="209" y2="144" stroke="#de77ae" stroke-width="2"/>
<text x="138" y="161.0" fill="#4d9221" font-family="Verdana" font-size="12">1,N</text>
<g id="association-PARTICIPER">
	<path d="M 239 119 a 14 14 90 0 1 14 14 V 144 h -88 V 133 a 14 14 90 0 1 14 -14" fill="#f1b6da" stroke="#f1b6da" stroke-width="0"/>
	<path d="M 253 144.0 v 11 a 14 14 90 0 1 -14 14 H 179 a 14 14 90 0 1 -14 -14 V 144.0 H 88" fill="#fde0ef" stroke="#fde0ef" stroke-width="0"/>
	<rect x="165" y="119" width="88" height="50" fill="none" rx="14" stroke="#de77ae" stroke-width="2"/>
	<line x1="165" y1="144" x2="253" y2="144" stroke="#de77ae" stroke-width="1"/>
	<text x="172" y="136.7" fill="#000000" font-family="Verdana" font-size="12">PARTICIPER</text>
</g>

<!-- Association CREER -->
<line x1="348" y1="144" x2="209" y2="34" stroke="#de77ae" stroke-width="2"/>
<text x="258" y="105.229713004" fill="#4d9221" font-family="Verdana" font-size="12">0,N</text>
<line x1="71" y1="144" x2="209" y2="34" stroke="#de77ae" stroke-width="2"/>
<text x="138" y="105.630603752" fill="#4d9221" font-family="Verdana" font-size="12">1,1</text>
<g id="association-CREER">
	<path d="M 223 9 a 14 14 90 0 1 14 14 V 34 h -56 V 23 a 14 14 90 0 1 14 -14" fill="#f1b6da" stroke="#f1b6da" stroke-width="0"/>
	<path d="M 237 34.0 v 11 a 14 14 90 0 1 -14 14 H 195 a 14 14 90 0 1 -14 -14 V 34.0 H 56" fill="#fde0ef" stroke="#fde0ef" stroke-width="0"/>
	<rect x="181" y="9" width="56" height="50" fill="none" rx="14" stroke="#de77ae" stroke-width="2"/>
	<line x1="181" y1="34" x2="237" y2="34" stroke="#de77ae" stroke-width="1"/>
	<text x="188" y="26.7" fill="#000000" font-family="Verdana" font-size="12">CREER</text>
</g>

<!-- Association CONSERNE -->
<line x1="71" y1="144" x2="71" y2="279" stroke="#de77ae" stroke-width="2"/>
<text x="76.0" y="220" fill="#4d9221" font-family="Verdana" font-size="12">1,1</text>
<line x1="209" y1="279" x2="71" y2="279" stroke="#de77ae" stroke-width="2"/>
<text x="160" y="296.0" fill="#4d9221" font-family="Verdana" font-size="12">0,N</text>
<g id="association-CONSERNE">
	<path d="M 99 254 a 14 14 90 0 1 14 14 V 279 h -84 V 268 a 14 14 90 0 1 14 -14" fill="#f1b6da" stroke="#f1b6da" stroke-width="0"/>
	<path d="M 113 279.0 v 11 a 14 14 90 0 1 -14 14 H 43 a 14 14 90 0 1 -14 -14 V 279.0 H 84" fill="#fde0ef" stroke="#fde0ef" stroke-width="0"/>
	<rect x="29" y="254" width="84" height="50" fill="none" rx="14" stroke="#de77ae" stroke-width="2"/>
	<line x1="29" y1="279" x2="113" y2="279" stroke="#de77ae" stroke-width="1"/>
	<text x="36" y="271.7" fill="#000000" font-family="Verdana" font-size="12">CONSERNE</text>
</g>

<!-- Entity JEUX -->
<g id="entity-JEUX">
	<g id="frame-JEUX">
		<rect x="187" y="245" width="44" height="25" fill="#b8e186" stroke="#b8e186" stroke-width="0"/>
		<rect x="187" y="270.0" width="44" height="43" fill="#e6f5d0" stroke="#e6f5d0" stroke-width="0"/>
		<rect x="187" y="245" width="44" height="68" fill="none" stroke="#7fbc41" stroke-width="2"/>
		<line x1="187" y1="270" x2="231" y2="270" stroke="#7fbc41" stroke-width="1"/>
	</g>
	<text x="193" y="262.7" fill="#000000" font-family="Verdana" font-size="12">JEUX</text>
	<text x="192" y="287.8" fill="#000000" font-family="Verdana" font-size="12">nom</text>
	<line x1="192" y1="290" x2="220" y2="290" stroke="#000000" stroke-width="1"/>
	<text x="192" y="304.8" fill="#000000" font-family="Verdana" font-size="12">ordre</text>
</g>

<!-- Entity UTILISATEUR -->
<g id="entity-UTILISATEUR">
	<g id="frame-UTILISATEUR">
		<rect x="285" y="59" width="126" height="25" fill="#b8e186" stroke="#b8e186" stroke-width="0"/>
		<rect x="285" y="84.0" width="126" height="145" fill="#e6f5d0" stroke="#e6f5d0" stroke-width="0"/>
		<rect x="285" y="59" width="126" height="170" fill="none" stroke="#7fbc41" stroke-width="2"/>
		<line x1="285" y1="84" x2="411" y2="84" stroke="#7fbc41" stroke-width="1"/>
	</g>
	<text x="306" y="76.7" fill="#000000" font-family="Verdana" font-size="12">UTILISATEUR</text>
	<text x="290" y="101.7" fill="#000000" font-family="Verdana" font-size="12">email</text>
	<line x1="290" y1="104" x2="324" y2="104" stroke="#000000" stroke-width="1"/>
	<text x="290" y="118.7" fill="#000000" font-family="Verdana" font-size="12">password</text>
	<text x="290" y="135.7" fill="#000000" font-family="Verdana" font-size="12">pseudo</text>
	<text x="290" y="152.8" fill="#000000" font-family="Verdana" font-size="12">date_de_naissance</text>
	<text x="290" y="169.8" fill="#000000" font-family="Verdana" font-size="12">reputation_score</text>
	<text x="290" y="186.8" fill="#000000" font-family="Verdana" font-size="12">description</text>
	<text x="290" y="203.8" fill="#000000" font-family="Verdana" font-size="12">avatar</text>
	<text x="290" y="220.8" fill="#000000" font-family="Verdana" font-size="12">baniere</text>
</g>

<!-- Entity EVENEMENT -->
<g id="entity-EVENEMENT">
	<g id="frame-EVENEMENT">
		<rect x="9" y="85" width="124" height="25" fill="#b8e186" stroke="#b8e186" stroke-width="0"/>
		<rect x="9" y="110.0" width="124" height="93" fill="#e6f5d0" stroke="#e6f5d0" stroke-width="0"/>
		<rect x="9" y="85" width="124" height="118" fill="none" stroke="#7fbc41" stroke-width="2"/>
		<line x1="9" y1="110" x2="133" y2="110" stroke="#7fbc41" stroke-width="1"/>
	</g>
	<text x="33" y="102.7" fill="#000000" font-family="Verdana" font-size="12">EVENEMENT</text>
	<text x="14" y="127.7" fill="#000000" font-family="Verdana" font-size="12">date et heure</text>
	<line x1="14" y1="130" x2="97" y2="130" stroke="#000000" stroke-width="1"/>
	<text x="14" y="144.8" fill="#000000" font-family="Verdana" font-size="12">durée_estimé</text>
	<text x="14" y="161.8" fill="#000000" font-family="Verdana" font-size="12">nombre_joueur</text>
	<text x="14" y="178.8" fill="#000000" font-family="Verdana" font-size="12">description_courte</text>
	<text x="14" y="195.8" fill="#000000" font-family="Verdana" font-size="12">status</text>
</g>

<!-- Entity LEVEL -->
<g id="entity-LEVEL">
	<g id="frame-LEVEL">
		<rect x="185" y="338" width="48" height="25" fill="#b8e186" stroke="#b8e186" stroke-width="0"/>
		<rect x="185" y="363.0" width="48" height="25" fill="#e6f5d0" stroke="#e6f5d0" stroke-width="0"/>
		<rect x="185" y="338" width="48" height="50" fill="none" stroke="#7fbc41" stroke-width="2"/>
		<line x1="185" y1="363" x2="233" y2="363" stroke="#7fbc41" stroke-width="1"/>
	</g>
	<text x="190" y="355.7" fill="#000000" font-family="Verdana" font-size="12">LEVEL</text>
	<text x="190" y="380.8" fill="#000000" font-family="Verdana" font-size="12">label</text>
	<line x1="190" y1="383" x2="219" y2="383" stroke="#000000" stroke-width="1"/>
</g>
</svg>