<?xml version="1.0" encoding="UTF-8" standalone="no"?><!-- Generator: Gravit.io --><svg xmlns="http://www.w3.org/2000/svg" xmlns:xlink="http://www.w3.org/1999/xlink" style="isolation:isolate" viewBox="838.52 716.981 185.746 32.33" width="185.746pt" height="32.33pt"><defs><clipPath id="_clipPath_xDhFhr4RzMnzSu96L0jpf15JCSgtXj7p"><rect x="838.52" y="716.981" width="185.746" height="32.33"/></clipPath></defs><g clip-path="url(#_clipPath_xDhFhr4RzMnzSu96L0jpf15JCSgtXj7p)"><path d=" M 969.654 718.909 L 969.654 748.892 L 964.732 748.892 L 964.732 735.377 L 950.909 735.377 L 950.909 748.892 L 946.008 748.892 L 946.008 718.909 L 950.909 718.909 L 950.909 731.173 L 964.732 731.173 L 964.732 718.909 L 969.654 718.909 L 969.654 718.909 Z  M 996.826 748.892 L 993.032 748.892 L 992.356 745.918 L 992.11 745.918 L 992.11 745.918 Q 991.105 747.497 989.249 748.399 L 989.249 748.399 L 989.249 748.399 Q 987.393 749.302 985.014 749.302 L 985.014 749.302 L 985.014 749.302 Q 980.892 749.302 978.862 747.251 L 978.862 747.251 L 978.862 747.251 Q 976.831 745.2 976.831 741.037 L 976.831 741.037 L 976.831 726.21 L 981.692 726.21 L 981.692 740.196 L 981.692 740.196 Q 981.692 742.801 982.758 744.103 L 982.758 744.103 L 982.758 744.103 Q 983.824 745.405 986.101 745.405 L 986.101 745.405 L 986.101 745.405 Q 989.136 745.405 990.561 743.59 L 990.561 743.59 L 990.561 743.59 Q 991.987 741.775 991.987 737.51 L 991.987 737.51 L 991.987 726.21 L 996.826 726.21 L 996.826 748.892 L 996.826 748.892 Z  M 1015.283 725.8 L 1015.283 725.8 L 1015.283 725.8 Q 1019.529 725.8 1021.897 728.876 L 1021.897 728.876 L 1021.897 728.876 Q 1024.266 731.952 1024.266 737.51 L 1024.266 737.51 L 1024.266 737.51 Q 1024.266 743.088 1021.866 746.195 L 1021.866 746.195 L 1021.866 746.195 Q 1019.467 749.302 1015.201 749.302 L 1015.201 749.302 L 1015.201 749.302 Q 1010.895 749.302 1008.516 746.205 L 1008.516 746.205 L 1008.188 746.205 L 1007.306 748.892 L 1003.696 748.892 L 1003.696 716.981 L 1008.516 716.981 L 1008.516 724.569 L 1008.516 724.569 Q 1008.516 725.41 1008.434 727.071 L 1008.434 727.071 L 1008.434 727.071 Q 1008.352 728.732 1008.311 729.184 L 1008.311 729.184 L 1008.516 729.184 L 1008.516 729.184 Q 1010.813 725.8 1015.283 725.8 Z  M 1014.032 729.737 L 1014.032 729.737 L 1014.032 729.737 Q 1011.12 729.737 1009.839 731.45 L 1009.839 731.45 L 1009.839 731.45 Q 1008.557 733.162 1008.516 737.182 L 1008.516 737.182 L 1008.516 737.51 L 1008.516 737.51 Q 1008.516 741.652 1009.828 743.508 L 1009.828 743.508 L 1009.828 743.508 Q 1011.141 745.364 1014.114 745.364 L 1014.114 745.364 L 1014.114 745.364 Q 1016.678 745.364 1018.001 743.334 L 1018.001 743.334 L 1018.001 743.334 Q 1019.323 741.304 1019.323 737.469 L 1019.323 737.469 L 1019.323 737.469 Q 1019.323 729.737 1014.032 729.737 Z " fill="rgb(102,252,241)"/><path d=" M 863.72 748.892 L 863.72 732.512 L 857.84 743.012 L 851.96 743.012 L 846.08 732.512 L 846.08 748.892 L 838.52 748.892 L 838.52 719.492 L 846.5 719.492 L 854.9 735.032 L 863.3 719.492 L 871.28 719.492 L 871.28 748.892 L 863.72 748.892 L 863.72 748.892 Z  M 883.67 743.432 L 884.72 743.432 L 884.72 743.432 Q 886.946 743.432 889.76 742.592 L 889.76 742.592 L 889.76 740.072 L 883.67 740.072 L 883.67 740.072 Q 883.04 740.072 882.62 740.492 L 882.62 740.492 L 882.62 740.492 Q 882.2 740.912 882.2 741.542 L 882.2 741.542 L 882.2 741.962 L 882.2 741.962 Q 882.2 742.592 882.62 743.012 L 882.62 743.012 L 882.62 743.012 Q 883.04 743.432 883.67 743.432 L 883.67 743.432 L 883.67 743.432 Z  M 876.95 732.302 L 876.95 727.052 L 876.95 727.052 Q 884.636 726.212 890.81 726.212 L 890.81 726.212 L 890.81 726.212 Q 893.666 726.212 895.388 727.934 L 895.388 727.934 L 895.388 727.934 Q 897.11 729.656 897.11 732.512 L 897.11 732.512 L 897.11 748.892 L 890.6 748.892 L 890.18 746.792 L 890.18 746.792 Q 888.206 748.094 886.127 748.703 L 886.127 748.703 L 886.127 748.703 Q 884.048 749.312 882.62 749.312 L 882.62 749.312 L 881.15 749.312 L 881.15 749.312 Q 878.294 749.312 876.572 747.59 L 876.572 747.59 L 876.572 747.59 Q 874.85 745.868 874.85 743.012 L 874.85 743.012 L 874.85 741.122 L 874.85 741.122 Q 874.85 738.266 876.572 736.544 L 876.572 736.544 L 876.572 736.544 Q 878.294 734.822 881.15 734.822 L 881.15 734.822 L 889.76 734.822 L 889.76 733.142 L 889.76 733.142 Q 889.76 732.512 889.34 732.092 L 889.34 732.092 L 889.34 732.092 Q 888.92 731.672 888.29 731.672 L 888.29 731.672 L 888.29 731.672 Q 885.56 731.672 882.263 731.924 L 882.263 731.924 L 882.263 731.924 Q 878.966 732.176 876.95 732.302 L 876.95 732.302 L 876.95 732.302 Z  M 916.43 743.432 L 916.43 748.892 L 916.43 748.892 Q 912.356 749.312 908.45 749.312 L 908.45 749.312 L 908.45 749.312 Q 905.594 749.312 903.872 747.59 L 903.872 747.59 L 903.872 747.59 Q 902.15 745.868 902.15 743.012 L 902.15 743.012 L 902.15 732.302 L 899.63 732.302 L 899.63 726.632 L 902.15 726.632 L 902.99 721.592 L 909.5 721.592 L 909.5 726.632 L 914.75 726.632 L 914.75 732.302 L 909.5 732.302 L 909.5 741.962 L 909.5 741.962 Q 909.5 742.592 909.92 743.012 L 909.92 743.012 L 909.92 743.012 Q 910.34 743.432 910.97 743.432 L 910.97 743.432 L 916.43 743.432 L 916.43 743.432 Z  M 931.34 731.462 L 927.56 731.462 L 927.56 731.462 Q 925.88 731.462 925.88 733.142 L 925.88 733.142 L 925.88 735.452 L 933.02 735.452 L 933.02 733.142 L 933.02 733.142 Q 933.02 731.462 931.34 731.462 L 931.34 731.462 L 931.34 731.462 Z  M 939.53 743.222 L 939.53 748.472 L 939.53 748.472 Q 931.424 749.312 924.83 749.312 L 924.83 749.312 L 924.83 749.312 Q 921.974 749.312 920.252 747.59 L 920.252 747.59 L 920.252 747.59 Q 918.53 745.868 918.53 743.012 L 918.53 743.012 L 918.53 732.932 L 918.53 732.932 Q 918.53 729.782 920.315 727.997 L 920.315 727.997 L 920.315 727.997 Q 922.1 726.212 925.25 726.212 L 925.25 726.212 L 933.65 726.212 L 933.65 726.212 Q 936.8 726.212 938.585 727.997 L 938.585 727.997 L 938.585 727.997 Q 940.37 729.782 940.37 732.932 L 940.37 732.932 L 940.37 740.702 L 925.88 740.702 L 925.88 742.382 L 925.88 742.382 Q 925.88 743.012 926.3 743.432 L 926.3 743.432 L 926.3 743.432 Q 926.72 743.852 927.35 743.852 L 927.35 743.852 L 927.35 743.852 Q 931.508 743.852 939.53 743.222 L 939.53 743.222 L 939.53 743.222 Z " fill="rgb(255,255,255)"/></g></svg>