<?xml version="1.0" encoding="UTF-8" standalone="no"?><!-- Generator: Gravit.io --><svg xmlns="http://www.w3.org/2000/svg" xmlns:xlink="http://www.w3.org/1999/xlink" style="isolation:isolate" viewBox="648.812 336 184.014 50.057" width="184.014pt" height="50.057pt"><defs><clipPath id="_clipPath_6FhMYWwvXb1JAamZnyJodpfew44Z6FUy"><rect x="648.812" y="336" width="184.014" height="50.057"/></clipPath></defs><g clip-path="url(#_clipPath_6FhMYWwvXb1JAamZnyJodpfew44Z6FUy)"><rect x="649" y="336" width="183.638" height="49.702" transform="matrix(1,0,0,1,0,0)" fill="none"/><g><g><path d=" M 829.132 336.354 L 757.011 336.354 C 754.767 336.606 753.533 337.978 753.315 340.483 L 753.315 381.927 C 753.53 384.429 754.762 385.796 756.991 386.057 L 829.149 386.057 C 831.379 385.796 832.61 384.427 832.826 381.927 L 832.826 340.483 C 832.609 337.978 831.374 336.606 829.132 336.354 Z " fill="rgb(102,252,241)"/><path d=" M 825.522 355.655 C 824.298 354.304 822.654 353.435 820.863 353.037 C 820.35 352.9 819.764 352.804 819.112 352.774 C 816.744 352.559 813.702 353.506 812.288 354.693 L 812.631 344.989 L 806.872 344.989 L 806.872 375.033 L 812.222 375.033 L 812.222 373.379 C 813.455 374.371 815.435 375.524 818.451 375.524 C 818.569 375.524 818.681 375.523 818.79 375.521 C 818.868 375.523 818.947 375.524 819.025 375.524 C 821.553 375.524 823.702 374.521 825.47 372.513 C 827.239 370.503 828.124 367.642 828.124 363.926 C 828.124 360.333 827.256 357.576 825.522 355.655 Z  M 820.88 369.346 C 819.986 370.432 818.903 370.975 817.632 370.975 C 815.978 370.975 814.653 370.209 813.656 368.68 C 812.946 367.601 812.59 365.934 812.59 363.68 C 812.59 361.494 813.048 359.864 813.963 358.792 C 814.879 357.72 816.026 357.183 817.406 357.183 C 818.814 357.183 819.968 357.734 820.87 358.833 C 821.771 359.932 822.223 361.727 822.223 364.211 C 822.223 366.549 821.775 368.26 820.88 369.346 Z  M 797.591 362.45 C 797.591 365.565 797.448 367.521 797.161 368.322 C 796.874 369.12 796.341 369.79 795.562 370.328 C 794.784 370.87 793.902 371.138 792.919 371.138 C 792.058 371.138 791.347 370.938 790.787 370.534 C 790.227 370.131 789.84 369.584 789.629 368.895 C 789.417 368.204 789.312 366.331 789.312 363.269 L 789.312 353.269 L 783.554 353.269 L 783.554 367.04 C 783.554 369.09 783.813 370.694 784.332 371.856 C 784.851 373.017 785.691 373.92 786.852 374.561 C 788.014 375.203 789.325 375.524 790.787 375.524 C 791.006 375.524 791.223 375.516 791.438 375.502 C 791.448 375.502 791.449 375.502 791.455 375.499 C 795.12 375.394 797.029 373.731 798.001 372.636 L 798.001 375.032 L 803.349 375.032 L 803.349 353.269 L 797.591 353.269 L 797.591 362.45 Z  M 778.801 355.4 C 778.261 354.637 777.459 354.007 776.394 353.515 C 775.43 353.07 774.361 352.829 773.185 352.787 C 773.165 352.785 773.147 352.783 773.127 352.782 C 770.7 352.654 767.596 353.361 766.147 354.755 L 766.147 344.989 L 760.389 344.989 L 760.389 375.032 L 766.147 375.032 L 766.147 364.131 C 766.147 362.3 766.322 360.916 766.67 359.981 C 767.019 359.045 767.568 358.344 768.32 357.879 C 769.071 357.416 769.924 357.183 770.882 357.183 C 771.714 357.183 772.409 357.364 772.961 357.727 C 773.514 358.088 773.901 358.577 774.119 359.191 C 774.337 359.807 774.447 361.254 774.447 363.535 L 774.447 375.032 L 780.205 375.032 L 780.205 362.265 C 780.205 360.313 780.105 358.87 779.907 357.942 C 779.71 357.012 779.34 356.165 778.801 355.4 Z " fill="rgb(31,40,51)"/></g><path d=" M 680.558 375.034 L 673.46 375.034 L 673.382 360.565 L 666.362 372.343 L 662.93 372.343 L 655.949 360.955 L 655.949 375.034 L 648.812 375.034 L 648.812 347.734 L 655.169 347.734 L 664.763 363.49 L 674.123 347.734 L 680.48 347.734 L 680.558 375.034 Z  M 694.676 353.545 L 694.676 353.545 Q 699.941 353.545 702.71 355.944 L 702.71 355.944 L 702.71 355.944 Q 705.479 358.342 705.479 363.295 L 705.479 363.295 L 705.479 375.034 L 698.576 375.034 L 698.576 372.304 L 698.576 372.304 Q 696.977 375.385 692.336 375.385 L 692.336 375.385 L 692.336 375.385 Q 689.879 375.385 688.085 374.527 L 688.085 374.527 L 688.085 374.527 Q 686.291 373.669 685.375 372.207 L 685.375 372.207 L 685.375 372.207 Q 684.458 370.744 684.458 368.872 L 684.458 368.872 L 684.458 368.872 Q 684.458 365.869 686.759 364.212 L 686.759 364.212 L 686.759 364.212 Q 689.06 362.554 693.857 362.554 L 693.857 362.554 L 698.069 362.554 L 698.069 362.554 Q 697.874 359.2 693.584 359.2 L 693.584 359.2 L 693.584 359.2 Q 692.063 359.2 690.503 359.688 L 690.503 359.688 L 690.503 359.688 Q 688.943 360.175 687.851 361.033 L 687.851 361.033 L 685.355 356.002 L 685.355 356.002 Q 687.11 354.832 689.626 354.189 L 689.626 354.189 L 689.626 354.189 Q 692.141 353.545 694.676 353.545 L 694.676 353.545 Z  M 694.403 370.705 L 694.403 370.705 Q 695.69 370.705 696.665 370.081 L 696.665 370.081 L 696.665 370.081 Q 697.64 369.457 698.069 368.248 L 698.069 368.248 L 698.069 366.415 L 694.871 366.415 L 694.871 366.415 Q 691.634 366.415 691.634 368.56 L 691.634 368.56 L 691.634 368.56 Q 691.634 369.535 692.375 370.12 L 692.375 370.12 L 692.375 370.12 Q 693.116 370.705 694.403 370.705 L 694.403 370.705 Z  M 722.912 368.989 L 724.745 374.176 L 724.745 374.176 Q 723.809 374.761 722.464 375.073 L 722.464 375.073 L 722.464 375.073 Q 721.118 375.385 719.597 375.385 L 719.597 375.385 L 719.597 375.385 Q 715.463 375.385 713.24 373.357 L 713.24 373.357 L 713.24 373.357 Q 711.017 371.329 711.017 367.312 L 711.017 367.312 L 711.017 360.214 L 707.936 360.214 L 707.936 354.676 L 711.017 354.676 L 711.017 349.177 L 718.427 349.177 L 718.427 354.676 L 723.263 354.676 L 723.263 360.214 L 718.427 360.214 L 718.427 367.234 L 718.427 367.234 Q 718.427 368.365 719.032 369.009 L 719.032 369.009 L 719.032 369.009 Q 719.636 369.652 720.65 369.652 L 720.65 369.652 L 720.65 369.652 Q 721.937 369.652 722.912 368.989 L 722.912 368.989 Z  M 748.574 364.504 L 748.574 364.504 Q 748.574 364.582 748.457 366.337 L 748.457 366.337 L 733.091 366.337 L 733.091 366.337 Q 733.559 367.975 734.905 368.853 L 734.905 368.853 L 734.905 368.853 Q 736.25 369.73 738.278 369.73 L 738.278 369.73 L 738.278 369.73 Q 739.799 369.73 740.911 369.301 L 740.911 369.301 L 740.911 369.301 Q 742.022 368.872 743.153 367.897 L 743.153 367.897 L 747.053 371.953 L 747.053 371.953 Q 743.972 375.385 738.044 375.385 L 738.044 375.385 L 738.044 375.385 Q 734.339 375.385 731.531 373.981 L 731.531 373.981 L 731.531 373.981 Q 728.723 372.577 727.183 370.081 L 727.183 370.081 L 727.183 370.081 Q 725.642 367.585 725.642 364.426 L 725.642 364.426 L 725.642 364.426 Q 725.642 361.306 727.144 358.83 L 727.144 358.83 L 727.144 358.83 Q 728.645 356.353 731.297 354.949 L 731.297 354.949 L 731.297 354.949 Q 733.949 353.545 737.264 353.545 L 737.264 353.545 L 737.264 353.545 Q 740.423 353.545 742.997 354.852 L 742.997 354.852 L 742.997 354.852 Q 745.571 356.158 747.073 358.635 L 747.073 358.635 L 747.073 358.635 Q 748.574 361.111 748.574 364.504 L 748.574 364.504 Z  M 737.303 358.81 L 737.303 358.81 Q 735.587 358.81 734.437 359.785 L 734.437 359.785 L 734.437 359.785 Q 733.286 360.76 732.974 362.437 L 732.974 362.437 L 741.632 362.437 L 741.632 362.437 Q 741.32 360.76 740.17 359.785 L 740.17 359.785 L 740.17 359.785 Q 739.019 358.81 737.303 358.81 L 737.303 358.81 Z " fill="rgb(255,255,255)"/></g></g></svg>