<?xml version="1.0" encoding="UTF-8" standalone="no"?><!-- Generator: Gravit.io --><svg xmlns="http://www.w3.org/2000/svg" xmlns:xlink="http://www.w3.org/1999/xlink" style="isolation:isolate" viewBox="26954.106 11460.15 183.638 49.702" width="183.638pt" height="49.702pt"><defs><clipPath id="_clipPath_aNe331vFdD7SNs6b4DStq57ctFMzSt7P"><rect x="26954.106" y="11460.15" width="183.638" height="49.702"/></clipPath></defs><g clip-path="url(#_clipPath_aNe331vFdD7SNs6b4DStq57ctFMzSt7P)"><g><path d=" M 27134.05 11460.15 L 27061.929 11460.15 C 27059.685 11460.402 27058.451 11461.774 27058.233 11464.278 L 27058.233 11505.723 C 27058.448 11508.224 27059.68 11509.591 27061.909 11509.852 L 27134.067 11509.852 C 27136.297 11509.591 27137.528 11508.223 27137.744 11505.723 L 27137.744 11464.278 C 27137.527 11461.774 27136.292 11460.402 27134.05 11460.15 Z " fill="rgb(102,252,241)"/><path d=" M 27130.44 11479.451 C 27129.216 11478.099 27127.572 11477.231 27125.781 11476.832 C 27125.268 11476.696 27124.682 11476.599 27124.03 11476.57 C 27121.662 11476.355 27118.62 11477.302 27117.206 11478.489 L 27117.549 11468.785 L 27111.79 11468.785 L 27111.79 11498.829 L 27117.14 11498.829 L 27117.14 11497.174 C 27118.373 11498.167 27120.353 11499.32 27123.369 11499.32 C 27123.487 11499.32 27123.599 11499.319 27123.708 11499.317 C 27123.786 11499.319 27123.865 11499.32 27123.943 11499.32 C 27126.471 11499.32 27128.62 11498.316 27130.388 11496.308 C 27132.157 11494.298 27133.042 11491.438 27133.042 11487.722 C 27133.042 11484.128 27132.174 11481.372 27130.44 11479.451 M 27125.798 11493.142 C 27124.904 11494.228 27123.821 11494.77 27122.55 11494.77 C 27120.896 11494.77 27119.571 11494.005 27118.574 11492.475 C 27117.864 11491.396 27117.508 11489.73 27117.508 11487.475 C 27117.508 11485.289 27117.966 11483.66 27118.881 11482.588 C 27119.797 11481.516 27120.944 11480.979 27122.324 11480.979 C 27123.732 11480.979 27124.886 11481.529 27125.788 11482.628 C 27126.689 11483.728 27127.141 11485.522 27127.141 11488.007 C 27127.141 11490.345 27126.693 11492.055 27125.798 11493.142 M 27102.509 11486.245 C 27102.509 11489.36 27102.366 11491.317 27102.079 11492.117 C 27101.792 11492.916 27101.259 11493.586 27100.48 11494.124 C 27099.702 11494.665 27098.82 11494.934 27097.837 11494.934 C 27096.976 11494.934 27096.265 11494.733 27095.705 11494.33 C 27095.145 11493.927 27094.758 11493.38 27094.547 11492.69 C 27094.335 11492 27094.23 11490.126 27094.23 11487.064 L 27094.23 11477.064 L 27088.472 11477.064 L 27088.472 11490.836 C 27088.472 11492.885 27088.731 11494.49 27089.25 11495.652 C 27089.769 11496.813 27090.609 11497.715 27091.77 11498.357 C 27092.932 11498.999 27094.243 11499.32 27095.705 11499.32 C 27095.924 11499.32 27096.141 11499.312 27096.356 11499.297 C 27096.366 11499.297 27096.367 11499.297 27096.373 11499.295 C 27100.038 11499.189 27101.947 11497.527 27102.919 11496.431 L 27102.919 11498.828 L 27108.267 11498.828 L 27108.267 11477.064 L 27102.509 11477.064 L 27102.509 11486.245 Z  M 27083.719 11479.196 C 27083.179 11478.432 27082.377 11477.803 27081.312 11477.311 C 27080.348 11476.866 27079.279 11476.625 27078.103 11476.582 C 27078.083 11476.581 27078.065 11476.579 27078.045 11476.578 C 27075.618 11476.449 27072.514 11477.157 27071.065 11478.551 L 27071.065 11468.785 L 27065.307 11468.785 L 27065.307 11498.828 L 27071.065 11498.828 L 27071.065 11487.927 C 27071.065 11486.096 27071.24 11484.712 27071.588 11483.777 C 27071.937 11482.84 27072.486 11482.14 27073.238 11481.675 C 27073.989 11481.212 27074.842 11480.979 27075.8 11480.979 C 27076.632 11480.979 27077.327 11481.16 27077.879 11481.522 C 27078.432 11481.884 27078.819 11482.373 27079.037 11482.987 C 27079.255 11483.603 27079.365 11485.05 27079.365 11487.331 L 27079.365 11498.828 L 27085.123 11498.828 L 27085.123 11486.061 C 27085.123 11484.108 27085.023 11482.666 27084.825 11481.738 C 27084.628 11480.807 27084.258 11479.961 27083.719 11479.196 Z " fill="rgb(31,40,51)"/></g><g clip-path="url(#_clipPath_ZZhwcIuO5h7skEfRtI7vkaaAdczWHH7k)"><text transform="matrix(1,0,0,1,26957,11498.83)" style="font-family:'Montserrat';font-weight:800;font-size:39px;font-style:normal;letter-spacing:-2.5;fill:#ffffff;stroke:none;">Mate</text></g><defs><clipPath id="_clipPath_ZZhwcIuO5h7skEfRtI7vkaaAdczWHH7k"><rect x="0" y="0" width="105" height="47.541" transform="matrix(1,0,0,1,26957,11461.078)"/></clipPath></defs></g></svg>